<svg width="316" height="346" viewBox="0 0 316 346" fill="none" xmlns="http://www.w3.org/2000/svg">
<mask id="path-1-outside-1" maskUnits="userSpaceOnUse" x="0" y="3.00003" width="316" height="343" fill="black">
<rect fill="white" y="3.00003" width="316" height="343"/>
<path d="M158 187V337L308 262V112L158 187Z"/>
<path d="M158 162V187L308 112V87L158 162Z"/>
<path d="M158 187V337L8 262L8 112L158 187Z"/>
<path d="M158 162V187L8 112L8 87L158 162Z"/>
<path d="M308 87L158 162L8 87L158 12L308 87Z"/>
<path d="M158 159V162L8 87L11 85.5L158 159Z"/>
<path d="M158 184V187L8 112L8 109L158 184Z"/>
<path d="M158 184V187L308 112V109L158 184Z"/>
<path d="M158 159V162L308 87L305 85.5L158 159Z"/>
<path d="M124.088 109C121.277 109 118.921 108.297 117.02 106.892C115.201 105.404 113.92 103.42 113.176 100.94C112.515 98.6254 112.101 96.104 111.936 93.376C111.853 90.648 111.812 86.804 111.812 81.844C111.812 77.2147 111.605 73.784 111.192 71.552C110.861 69.32 109.993 68.204 108.588 68.204C106.935 68.204 105.777 68.948 105.116 70.436C104.455 71.8414 104.124 73.8667 104.124 76.512C104.124 78.9094 104.455 82.6707 105.116 87.796C105.199 88.788 105.364 90.3587 105.612 92.508C105.86 94.6574 105.984 96.4347 105.984 97.84C105.984 101.808 105.075 104.619 103.256 106.272C101.52 107.925 98.9573 108.752 95.568 108.752C91.5173 108.752 88.004 106.561 85.028 102.18C82.052 97.7987 79.82 92.3427 78.332 85.812C76.844 79.1987 76.1 72.7094 76.1 66.344C76.1 58.7387 77.1746 51.6707 79.324 45.14C81.556 38.6094 84.8627 33.36 89.244 29.392C93.708 25.424 99.0813 23.44 105.364 23.44C110.655 23.44 114.871 25.0934 118.012 28.4C121.153 31.624 123.261 35.5507 124.336 40.18C125.245 35.6334 127.271 31.7067 130.412 28.4C133.636 25.0934 137.852 23.44 143.06 23.44C149.26 23.44 154.551 25.3827 158.932 29.268C163.396 33.0707 166.785 38.4027 169.1 45.264C171.497 52.1254 172.696 60.0614 172.696 69.072C172.696 74.9414 171.869 81.0174 170.216 87.3C168.563 93.5 166.248 98.6667 163.272 102.8C160.296 106.933 156.907 109 153.104 109C149.632 109 146.987 108.132 145.168 106.396C143.349 104.66 142.44 101.808 142.44 97.84C142.44 96.0214 142.771 92.632 143.432 87.672C144.093 82.3814 144.424 78.5787 144.424 76.264C144.424 70.8907 142.977 68.204 140.084 68.204C138.596 68.204 137.645 69.4027 137.232 71.8C136.901 74.1974 136.695 78.0827 136.612 83.456C136.612 87.5067 136.529 90.896 136.364 93.624C136.199 96.2694 135.827 98.708 135.248 100.94C134.587 103.337 133.264 105.28 131.28 106.768C129.379 108.256 126.981 109 124.088 109Z"/>
<path d="M197.195 127.352C192.731 127.352 189.011 126.484 186.035 124.748C183.059 123.012 181.571 120.449 181.571 117.06C181.571 114.332 182.852 112.183 185.415 110.612C187.977 109.041 190.995 108.339 194.467 108.504C198.104 108.669 200.915 108.504 202.899 108.008C204.965 107.512 206.536 106.603 207.611 105.28C200.005 105.28 193.929 104.205 189.383 102.056C184.836 99.824 181.529 96.3934 179.463 91.764C177.479 87.052 176.487 80.852 176.487 73.164C176.487 66.5507 177.479 61.2187 179.463 57.168C181.529 53.0347 184.753 50.968 189.135 50.968C193.02 50.968 195.872 52.084 197.691 54.316C199.592 56.4654 200.543 59.276 200.543 62.748L200.419 68.204C200.336 69.2787 200.295 70.8494 200.295 72.916C200.295 76.884 200.791 79.9014 201.783 81.968C202.775 83.952 204.759 84.944 207.735 84.944C210.711 84.944 212.695 83.952 213.687 81.968C214.679 79.9014 215.175 76.9254 215.175 73.04C215.175 70.9734 215.133 69.4027 215.051 68.328L214.927 62.996C214.927 59.276 215.836 56.3414 217.655 54.192C219.556 52.0427 222.449 50.968 226.335 50.968C230.716 50.968 233.94 53.0347 236.007 57.168C238.073 61.3014 239.107 66.6334 239.107 73.164C239.107 82.9187 237.701 91.888 234.891 100.072C232.163 108.173 227.657 114.745 221.375 119.788C215.175 124.831 207.115 127.352 197.195 127.352Z"/>
<path d="M22.1729 255.232L24.349 124L57.7618 141.025L57.4509 159.772L74.1573 168.284L73.8464 187.032L90.5528 195.544L90.8636 176.797L107.57 185.309L107.881 166.562L141.294 183.586L139.118 314.818L105.705 297.794L106.948 222.804L90.2419 214.292L89.6201 251.786L72.9138 243.274L73.5355 205.779L56.8291 197.267L55.5857 272.257L22.1729 255.232Z"/>
<path d="M209.09 298.211V279.461L192.496 288.191V269.441L175.903 278.171V221.921L192.496 213.191V194.441L209.09 185.711V166.961L275.464 132.039V150.789L292.057 142.059V160.809L258.87 178.27V159.52L225.683 176.98V195.73L209.09 204.461V260.711L225.683 251.98V270.73L258.87 253.27V234.52L292.057 217.059V235.809L275.464 244.539V263.289L209.09 298.211Z"/>
</mask>
<g filter="url(#filter0_i)">
<path d="M158 187V337L308 262V112L158 187Z" fill="#231A0D"/>
<path d="M158 162V187L308 112V87L158 162Z" fill="#231A0D"/>
<path d="M158 187V337L8 262L8 112L158 187Z" fill="#231A0D"/>
<path d="M158 162V187L8 112L8 87L158 162Z" fill="#231A0D"/>
<path d="M308 87L158 162L8 87L158 12L308 87Z" fill="#231A0D"/>
<path d="M158 159V162L8 87L11 85.5L158 159Z" fill="#231A0D"/>
<path d="M158 184V187L8 112L8 109L158 184Z" fill="#231A0D"/>
<path d="M158 184V187L308 112V109L158 184Z" fill="#231A0D"/>
<path d="M158 159V162L308 87L305 85.5L158 159Z" fill="#231A0D"/>
<path d="M124.088 109C121.277 109 118.921 108.297 117.02 106.892C115.201 105.404 113.92 103.42 113.176 100.94C112.515 98.6254 112.101 96.104 111.936 93.376C111.853 90.648 111.812 86.804 111.812 81.844C111.812 77.2147 111.605 73.784 111.192 71.552C110.861 69.32 109.993 68.204 108.588 68.204C106.935 68.204 105.777 68.948 105.116 70.436C104.455 71.8414 104.124 73.8667 104.124 76.512C104.124 78.9094 104.455 82.6707 105.116 87.796C105.199 88.788 105.364 90.3587 105.612 92.508C105.86 94.6574 105.984 96.4347 105.984 97.84C105.984 101.808 105.075 104.619 103.256 106.272C101.52 107.925 98.9573 108.752 95.568 108.752C91.5173 108.752 88.004 106.561 85.028 102.18C82.052 97.7987 79.82 92.3427 78.332 85.812C76.844 79.1987 76.1 72.7094 76.1 66.344C76.1 58.7387 77.1746 51.6707 79.324 45.14C81.556 38.6094 84.8627 33.36 89.244 29.392C93.708 25.424 99.0813 23.44 105.364 23.44C110.655 23.44 114.871 25.0934 118.012 28.4C121.153 31.624 123.261 35.5507 124.336 40.18C125.245 35.6334 127.271 31.7067 130.412 28.4C133.636 25.0934 137.852 23.44 143.06 23.44C149.26 23.44 154.551 25.3827 158.932 29.268C163.396 33.0707 166.785 38.4027 169.1 45.264C171.497 52.1254 172.696 60.0614 172.696 69.072C172.696 74.9414 171.869 81.0174 170.216 87.3C168.563 93.5 166.248 98.6667 163.272 102.8C160.296 106.933 156.907 109 153.104 109C149.632 109 146.987 108.132 145.168 106.396C143.349 104.66 142.44 101.808 142.44 97.84C142.44 96.0214 142.771 92.632 143.432 87.672C144.093 82.3814 144.424 78.5787 144.424 76.264C144.424 70.8907 142.977 68.204 140.084 68.204C138.596 68.204 137.645 69.4027 137.232 71.8C136.901 74.1974 136.695 78.0827 136.612 83.456C136.612 87.5067 136.529 90.896 136.364 93.624C136.199 96.2694 135.827 98.708 135.248 100.94C134.587 103.337 133.264 105.28 131.28 106.768C129.379 108.256 126.981 109 124.088 109Z" fill="#231A0D"/>
<path d="M197.195 127.352C192.731 127.352 189.011 126.484 186.035 124.748C183.059 123.012 181.571 120.449 181.571 117.06C181.571 114.332 182.852 112.183 185.415 110.612C187.977 109.041 190.995 108.339 194.467 108.504C198.104 108.669 200.915 108.504 202.899 108.008C204.965 107.512 206.536 106.603 207.611 105.28C200.005 105.28 193.929 104.205 189.383 102.056C184.836 99.824 181.529 96.3934 179.463 91.764C177.479 87.052 176.487 80.852 176.487 73.164C176.487 66.5507 177.479 61.2187 179.463 57.168C181.529 53.0347 184.753 50.968 189.135 50.968C193.02 50.968 195.872 52.084 197.691 54.316C199.592 56.4654 200.543 59.276 200.543 62.748L200.419 68.204C200.336 69.2787 200.295 70.8494 200.295 72.916C200.295 76.884 200.791 79.9014 201.783 81.968C202.775 83.952 204.759 84.944 207.735 84.944C210.711 84.944 212.695 83.952 213.687 81.968C214.679 79.9014 215.175 76.9254 215.175 73.04C215.175 70.9734 215.133 69.4027 215.051 68.328L214.927 62.996C214.927 59.276 215.836 56.3414 217.655 54.192C219.556 52.0427 222.449 50.968 226.335 50.968C230.716 50.968 233.94 53.0347 236.007 57.168C238.073 61.3014 239.107 66.6334 239.107 73.164C239.107 82.9187 237.701 91.888 234.891 100.072C232.163 108.173 227.657 114.745 221.375 119.788C215.175 124.831 207.115 127.352 197.195 127.352Z" fill="#231A0D"/>
<path d="M22.1729 255.232L24.349 124L57.7618 141.025L57.4509 159.772L74.1573 168.284L73.8464 187.032L90.5528 195.544L90.8636 176.797L107.57 185.309L107.881 166.562L141.294 183.586L139.118 314.818L105.705 297.794L106.948 222.804L90.2419 214.292L89.6201 251.786L72.9138 243.274L73.5355 205.779L56.8291 197.267L55.5857 272.257L22.1729 255.232Z" fill="#231A0D"/>
<path d="M209.09 298.211V279.461L192.496 288.191V269.441L175.903 278.171V221.921L192.496 213.191V194.441L209.09 185.711V166.961L275.464 132.039V150.789L292.057 142.059V160.809L258.87 178.27V159.52L225.683 176.98V195.73L209.09 204.461V260.711L225.683 251.98V270.73L258.87 253.27V234.52L292.057 217.059V235.809L275.464 244.539V263.289L209.09 298.211Z" fill="#231A0D"/>
</g>
<path d="M154 187V337H162V187H154ZM306.211 108.422L156.211 183.422L159.789 190.578L309.789 115.578L306.211 108.422ZM154 162V187H162V162H154ZM306.211 83.4223L156.211 158.422L159.789 165.578L309.789 90.5777L306.211 83.4223ZM6.21115 115.578L156.211 190.578L159.789 183.422L9.78885 108.422L6.21115 115.578ZM6.21115 90.5777L156.211 165.578L159.789 158.422L9.78885 83.4223L6.21115 90.5777ZM154 159V162H162V159H154ZM154 184V187H162V184H154ZM158 337L154.422 344.155L158 345.944L161.578 344.155L158 337ZM308 262L311.578 269.155L316 266.944V262H308ZM308 87H316V82.0558L311.578 79.8446L308 87ZM8 262H0L0 266.944L4.42229 269.155L8 262ZM8 112L16 112L8 112ZM8 87L4.42229 79.8446L0 82.0558L0 87L8 87ZM158 12L161.578 4.84461L158 3.05576L154.422 4.84461L158 12ZM158 159L154.422 166.155L158 167.944L161.578 166.155L158 159ZM11 85.5L14.5777 78.3446L11 76.5558L7.42229 78.3446L11 85.5ZM158 184L154.422 191.156L158 192.944L161.578 191.156L158 184ZM8 109L11.5777 101.845L0 96.0558L0 109L8 109ZM308 109H316V96.0557L304.422 101.845L308 109ZM305 85.5L308.578 78.3446L305 76.5557L301.422 78.3446L305 85.5ZM117.02 106.892L111.954 113.084L112.106 113.208L112.265 113.325L117.02 106.892ZM113.176 100.94L105.484 103.138L105.498 103.188L105.513 103.239L113.176 100.94ZM111.936 93.376L103.94 93.6183L103.943 93.7392L103.951 93.86L111.936 93.376ZM111.192 71.552L103.278 72.7244L103.299 72.867L103.326 73.0087L111.192 71.552ZM105.116 70.436L112.355 73.8424L112.391 73.7642L112.426 73.6851L105.116 70.436ZM105.116 87.796L113.088 87.1317L113.073 86.9515L113.05 86.7723L105.116 87.796ZM105.612 92.508L97.6647 93.425L97.6647 93.425L105.612 92.508ZM103.256 106.272L97.8746 100.353L97.8059 100.415L97.7387 100.479L103.256 106.272ZM85.028 102.18L91.6457 97.685L91.6457 97.685L85.028 102.18ZM78.332 85.812L70.5271 87.5681L70.5295 87.5787L70.5319 87.5893L78.332 85.812ZM79.324 45.14L71.7539 42.5528L71.7392 42.5958L71.725 42.6391L79.324 45.14ZM89.244 29.392L83.9291 23.4128L83.9013 23.4374L83.8738 23.4624L89.244 29.392ZM118.012 28.4L112.212 33.91L112.247 33.9467L112.282 33.9829L118.012 28.4ZM124.336 40.18L116.543 41.9891L132.181 41.749L124.336 40.18ZM130.412 28.4L124.684 22.8152L124.648 22.8524L124.612 22.89L130.412 28.4ZM158.932 29.268L153.624 35.2535L153.684 35.3063L153.744 35.358L158.932 29.268ZM169.1 45.264L161.52 47.8212L161.533 47.8621L161.548 47.9028L169.1 45.264ZM170.216 87.3L177.946 89.3613L177.949 89.3487L177.953 89.336L170.216 87.3ZM143.432 87.672L151.362 88.7293L151.366 88.6968L151.37 88.6643L143.432 87.672ZM137.232 71.8L129.348 70.4408L129.325 70.5735L129.307 70.7069L137.232 71.8ZM136.612 83.456L128.613 83.333L128.612 83.3945V83.456H136.612ZM136.364 93.624L144.348 94.1231L144.349 94.1155L144.349 94.108L136.364 93.624ZM135.248 100.94L142.96 103.067L142.976 103.008L142.992 102.948L135.248 100.94ZM131.28 106.768L126.48 100.368L126.414 100.417L126.35 100.468L131.28 106.768ZM185.415 110.612L181.234 103.791L181.234 103.791L185.415 110.612ZM194.467 108.504L194.086 116.495L194.095 116.495L194.103 116.496L194.467 108.504ZM202.899 108.008L201.032 100.229L200.995 100.238L200.958 100.247L202.899 108.008ZM207.611 105.28L213.82 110.325L224.418 97.28H207.611V105.28ZM189.383 102.056L185.857 109.237L185.91 109.263L185.964 109.289L189.383 102.056ZM179.463 91.764L172.09 94.8685L172.123 94.9472L172.158 95.0252L179.463 91.764ZM179.463 57.168L172.307 53.5903L172.293 53.6196L172.278 53.6491L179.463 57.168ZM197.691 54.316L191.489 59.3694L191.591 59.4951L191.699 59.6166L197.691 54.316ZM200.543 62.748L208.541 62.9298L208.543 62.8389V62.748H200.543ZM200.419 68.204L208.395 68.8176L208.412 68.602L208.417 68.3858L200.419 68.204ZM201.783 81.968L194.571 85.4299L194.598 85.488L194.627 85.5457L201.783 81.968ZM213.687 81.968L220.842 85.5457L220.871 85.488L220.899 85.4299L213.687 81.968ZM215.051 68.328L207.053 68.514L207.058 68.7281L207.074 68.9416L215.051 68.328ZM214.927 62.996H206.927V63.089L206.929 63.182L214.927 62.996ZM217.655 54.192L211.663 48.8914L211.604 48.9573L211.548 49.0245L217.655 54.192ZM236.007 57.168L228.851 60.7457L228.851 60.7457L236.007 57.168ZM234.891 100.072L227.324 97.4735L227.317 97.4962L227.309 97.519L234.891 100.072ZM221.375 119.788L216.367 113.549L216.347 113.565L216.327 113.582L221.375 119.788ZM22.1729 255.232L14.174 255.099L14.0912 260.093L18.541 262.36L22.1729 255.232ZM24.349 124L27.9809 116.872L16.5626 111.054L16.3501 123.867L24.349 124ZM57.7618 141.025L65.7607 141.157L65.8435 136.164L61.3937 133.897L57.7618 141.025ZM57.4509 159.772L49.452 159.639L49.3692 164.633L53.819 166.9L57.4509 159.772ZM74.1573 168.284L82.1562 168.417L82.239 163.424L77.7892 161.156L74.1573 168.284ZM73.8464 187.032L65.8475 186.899L65.7647 191.893L70.2145 194.16L73.8464 187.032ZM90.5528 195.544L86.9208 202.672L98.3392 208.49L98.5517 195.677L90.5528 195.544ZM90.8636 176.797L94.4956 169.669L83.0772 163.851L82.8647 176.664L90.8636 176.797ZM107.57 185.309L103.938 192.437L115.356 198.255L115.569 185.442L107.57 185.309ZM107.881 166.562L111.513 159.434L100.094 153.616L99.882 166.429L107.881 166.562ZM141.294 183.586L149.293 183.719L149.375 178.725L144.926 176.458L141.294 183.586ZM139.118 314.818L135.486 321.946L146.904 327.764L147.116 314.951L139.118 314.818ZM105.705 297.794L97.7059 297.661L97.6231 302.654L102.073 304.922L105.705 297.794ZM106.948 222.804L114.947 222.937L115.03 217.943L110.58 215.676L106.948 222.804ZM90.2419 214.292L93.8738 207.163L82.4555 201.346L82.243 214.159L90.2419 214.292ZM89.6201 251.786L85.9882 258.914L97.4066 264.732L97.619 251.919L89.6201 251.786ZM72.9138 243.274L64.9149 243.141L64.8321 248.135L69.2819 250.402L72.9138 243.274ZM73.5355 205.779L81.5344 205.912L81.6172 200.918L77.1674 198.651L73.5355 205.779ZM56.8291 197.267L60.4611 190.139L49.0427 184.321L48.8302 197.134L56.8291 197.267ZM55.5857 272.257L51.9537 279.385L63.3721 285.203L63.5846 272.389L55.5857 272.257ZM209.09 298.211H201.09V311.459L212.815 305.29L209.09 298.211ZM209.09 279.461H217.09V266.212L205.365 272.381L209.09 279.461ZM192.496 288.191H184.496V301.439L196.221 295.271L192.496 288.191ZM192.496 269.441H200.496V256.192L188.771 262.361L192.496 269.441ZM175.903 278.171H167.903V291.42L179.628 285.251L175.903 278.171ZM175.903 221.921L172.178 214.841L167.903 217.09V221.921H175.903ZM192.496 213.191L196.221 220.271L200.496 218.021V213.191H192.496ZM192.496 194.441L188.771 187.361L184.496 189.61V194.441H192.496ZM209.09 185.711L212.815 192.79L217.09 190.541V185.711H209.09ZM209.09 166.961L205.365 159.881L201.09 162.13V166.961H209.09ZM275.464 132.039H283.464V118.791L271.739 124.96L275.464 132.039ZM275.464 150.789H267.464V164.038L279.189 157.869L275.464 150.789ZM292.057 142.059H300.057V128.81L288.332 134.979L292.057 142.059ZM292.057 160.809L295.782 167.889L300.057 165.64V160.809H292.057ZM258.87 178.27H250.87V191.518L262.595 185.35L258.87 178.27ZM258.87 159.52H266.87V146.271L255.145 152.44L258.87 159.52ZM225.683 176.98L221.958 169.9L217.683 172.15V176.98H225.683ZM225.683 195.73L229.408 202.81L233.683 200.561V195.73H225.683ZM209.09 204.461L205.365 197.381L201.09 199.63V204.461H209.09ZM209.09 260.711H201.09V273.959L212.815 267.79L209.09 260.711ZM225.683 251.98H233.683V238.732L221.958 244.9L225.683 251.98ZM225.683 270.73H217.683V283.979L229.408 277.81L225.683 270.73ZM258.87 253.27L262.595 260.35L266.87 258.1V253.27H258.87ZM258.87 234.52L255.145 227.44L250.87 229.689V234.52H258.87ZM292.057 217.059H300.057V203.81L288.332 209.979L292.057 217.059ZM292.057 235.809L295.782 242.889L300.057 240.64V235.809H292.057ZM275.464 244.539L271.739 237.46L267.464 239.709V244.539H275.464ZM275.464 263.289L279.189 270.369L283.464 268.12V263.289H275.464ZM161.578 344.155L311.578 269.155L304.422 254.845L154.422 329.845L161.578 344.155ZM316 262V112H300V262H316ZM316 112V87H300V112H316ZM161.578 329.845L11.5777 254.845L4.42229 269.155L154.422 344.155L161.578 329.845ZM16 262L16 112H0L0 262H16ZM16 112L16 87L0 87L0 112L16 112ZM11.5777 94.1554L161.578 19.1554L154.422 4.84461L4.42229 79.8446L11.5777 94.1554ZM154.422 19.1554L304.422 94.1554L311.578 79.8446L161.578 4.84461L154.422 19.1554ZM11.5777 94.1554L14.5777 92.6554L7.42229 78.3446L4.42229 79.8446L11.5777 94.1554ZM7.42229 92.6554L154.422 166.155L161.578 151.845L14.5777 78.3446L7.42229 92.6554ZM16 112L16 109L0 109L0 112L16 112ZM4.42229 116.155L154.422 191.156L161.578 176.845L11.5777 101.845L4.42229 116.155ZM316 112V109H300V112H316ZM304.422 101.845L154.422 176.845L161.578 191.156L311.578 116.155L304.422 101.845ZM311.578 79.8446L308.578 78.3446L301.422 92.6554L304.422 94.1554L311.578 79.8446ZM301.422 78.3446L154.422 151.845L161.578 166.155L308.578 92.6554L301.422 78.3446ZM124.088 101C122.656 101 122.054 100.665 121.775 100.459L112.265 113.325C115.788 115.93 119.898 117 124.088 117V101ZM122.086 100.7C121.626 100.324 121.173 99.756 120.839 98.6412L105.513 103.239C106.667 107.084 108.776 110.484 111.954 113.084L122.086 100.7ZM120.868 98.7423C120.386 97.0557 120.056 95.1164 119.921 92.8921L103.951 93.86C104.147 97.0917 104.643 100.195 105.484 103.138L120.868 98.7423ZM119.932 93.1337C119.853 90.5265 119.812 86.7769 119.812 81.844H103.812C103.812 86.8311 103.853 90.7695 103.94 93.6183L119.932 93.1337ZM119.812 81.844C119.812 77.1197 119.611 73.0818 119.058 70.0953L103.326 73.0087C103.599 74.4863 103.812 77.3097 103.812 81.844H119.812ZM119.106 70.3796C118.847 68.6327 118.249 66.2395 116.608 64.1295C114.669 61.6366 111.777 60.204 108.588 60.204V76.204C107.853 76.204 106.945 76.0505 106.016 75.5946C105.089 75.1394 104.419 74.5193 103.978 73.9526C103.205 72.9586 103.207 72.2394 103.278 72.7244L119.106 70.3796ZM108.588 60.204C106.54 60.204 104.263 60.6768 102.154 62.0326C100.037 63.3936 98.6517 65.2829 97.8055 67.1869L112.426 73.6851C112.242 74.1012 111.766 74.8744 110.806 75.4915C109.854 76.1033 108.983 76.204 108.588 76.204V60.204ZM97.8774 67.0297C96.4796 70.0001 96.124 73.406 96.124 76.512H112.124C112.124 75.5047 112.188 74.7833 112.267 74.2981C112.349 73.7982 112.423 73.6976 112.355 73.8424L97.8774 67.0297ZM96.124 76.512C96.124 79.4571 96.5147 83.65 97.1818 88.8198L113.05 86.7723C112.395 81.6914 112.124 78.3617 112.124 76.512H96.124ZM97.1436 88.4604C97.2376 89.5876 97.4155 91.2653 97.6647 93.425L113.559 91.591C113.312 89.4521 113.16 87.9885 113.088 87.1317L97.1436 88.4604ZM97.6647 93.425C97.8941 95.4134 97.984 96.8578 97.984 97.84H113.984C113.984 96.0116 113.826 93.9013 113.559 91.591L97.6647 93.425ZM97.984 97.84C97.984 99.2556 97.8166 100.072 97.6904 100.461C97.5784 100.808 97.5618 100.637 97.8746 100.353L108.637 112.192C112.912 108.306 113.984 102.715 113.984 97.84H97.984ZM97.7387 100.479C98.0107 100.22 97.7563 100.752 95.568 100.752V116.752C100.158 116.752 105.029 115.631 108.773 112.065L97.7387 100.479ZM95.568 100.752C94.961 100.752 93.6419 100.624 91.6457 97.685L78.4103 106.675C82.3661 112.499 88.0737 116.752 95.568 116.752V100.752ZM91.6457 97.685C89.3561 94.3142 87.4549 89.8405 86.1321 84.0348L70.5319 87.5893C72.1851 94.8449 74.7478 101.283 78.4103 106.675L91.6457 97.685ZM86.1369 84.0559C84.7702 77.9818 84.1 72.0817 84.1 66.344H68.1C68.1 73.337 68.9178 80.4156 70.5271 87.5681L86.1369 84.0559ZM84.1 66.344C84.1 59.4988 85.0659 53.2837 86.923 47.641L71.725 42.6391C69.2834 50.0577 68.1 57.9786 68.1 66.344H84.1ZM86.8941 47.7273C88.7616 42.2629 91.3942 38.2379 94.6142 35.3217L83.8738 23.4624C78.3311 28.4821 74.3503 34.9558 71.7539 42.5528L86.8941 47.7273ZM94.5589 35.3713C97.4775 32.777 100.929 31.44 105.364 31.44V15.44C97.2331 15.44 89.9385 18.0711 83.9291 23.4128L94.5589 35.3713ZM105.364 31.44C108.844 31.44 110.826 32.4508 112.212 33.91L123.812 22.89C118.916 17.7359 112.465 15.44 105.364 15.44V31.44ZM112.282 33.9829C114.347 36.1016 115.78 38.6996 116.543 41.9891L132.129 38.371C130.743 32.4018 127.96 27.1464 123.742 22.8171L112.282 33.9829ZM132.181 41.749C132.799 38.6566 134.129 36.1031 136.212 33.91L124.612 22.89C120.413 27.3102 117.692 32.6102 116.491 38.6111L132.181 41.749ZM136.14 33.9848C137.66 32.4259 139.707 31.44 143.06 31.44V15.44C135.997 15.44 129.612 17.7609 124.684 22.8152L136.14 33.9848ZM143.06 31.44C147.429 31.44 150.797 32.7468 153.624 35.2535L164.24 23.2825C158.304 18.0185 151.091 15.44 143.06 15.44V31.44ZM153.744 35.358C156.874 38.0237 159.56 42.0116 161.52 47.8212L176.68 42.7068C174.011 34.7938 169.918 28.1176 164.12 23.1781L153.744 35.358ZM161.548 47.9028C163.587 53.7404 164.696 60.7529 164.696 69.072H180.696C180.696 59.3699 179.407 50.5104 176.652 42.6253L161.548 47.9028ZM164.696 69.072C164.696 74.1854 163.976 79.5759 162.479 85.2641L177.953 89.336C179.762 82.4588 180.696 75.6973 180.696 69.072H164.696ZM162.486 85.2387C161.021 90.7338 159.062 94.9561 156.78 98.1256L169.764 107.474C173.434 102.377 176.105 96.2663 177.946 89.3613L162.486 85.2387ZM156.78 98.1256C154.751 100.944 153.51 101 153.104 101V117C160.303 117 165.841 112.923 169.764 107.474L156.78 98.1256ZM153.104 101C150.895 101 150.533 100.458 150.692 100.609L139.644 112.183C143.44 115.806 148.369 117 153.104 117V101ZM150.692 100.609C150.921 100.828 150.869 100.917 150.744 100.525C150.606 100.093 150.44 99.2508 150.44 97.84H134.44C134.44 102.762 135.532 108.258 139.644 112.183L150.692 100.609ZM150.44 97.84C150.44 96.6288 150.693 93.7436 151.362 88.7293L135.502 86.6147C134.848 91.5204 134.44 95.4139 134.44 97.84H150.44ZM151.37 88.6643C152.034 83.3563 152.424 79.1211 152.424 76.264H136.424C136.424 78.0363 136.153 81.4064 135.494 86.6797L151.37 88.6643ZM152.424 76.264C152.424 73.1209 152.046 69.5142 150.383 66.4262C149.487 64.7625 148.141 63.1114 146.194 61.9057C144.223 60.686 142.091 60.204 140.084 60.204V76.204C139.523 76.204 138.657 76.0579 137.772 75.5099C136.909 74.9758 136.468 74.3323 136.295 74.0118C136.146 73.734 136.199 73.7101 136.279 74.1511C136.354 74.574 136.424 75.2571 136.424 76.264H152.424ZM140.084 60.204C136.819 60.204 133.93 61.6818 131.987 64.1319C130.327 66.2246 129.662 68.6233 129.348 70.4408L145.116 73.1593C145.216 72.5794 145.232 73.1801 144.523 74.0742C144.116 74.587 143.486 75.1719 142.598 75.6084C141.703 76.0481 140.817 76.204 140.084 76.204V60.204ZM129.307 70.7069C128.905 73.6239 128.696 77.9285 128.613 83.333L144.611 83.5791C144.693 78.2369 144.898 74.7709 145.157 72.8931L129.307 70.7069ZM128.612 83.456C128.612 87.4141 128.531 90.6298 128.379 93.1401L144.349 94.108C144.528 91.1623 144.612 87.5993 144.612 83.456H128.612ZM128.38 93.125C128.241 95.3348 127.937 97.2612 127.504 98.9323L142.992 102.948C143.716 100.155 144.156 97.204 144.348 94.1231L128.38 93.125ZM127.536 98.8126C127.344 99.5078 127.043 99.9458 126.48 100.368L136.08 113.168C139.485 110.614 141.829 107.167 142.96 103.067L127.536 98.8126ZM126.35 100.468C126.119 100.648 125.561 101 124.088 101V117C128.402 117 132.638 115.864 136.21 113.068L126.35 100.468ZM197.195 119.352C193.738 119.352 191.507 118.679 190.066 117.838L182.004 131.658C186.514 134.289 191.724 135.352 197.195 135.352V119.352ZM190.066 117.838C189.811 117.689 189.682 117.578 189.631 117.528C189.584 117.483 189.587 117.476 189.605 117.507C189.623 117.538 189.621 117.548 189.611 117.507C189.599 117.46 189.571 117.321 189.571 117.06H173.571C173.571 123.352 176.62 128.518 182.004 131.658L190.066 117.838ZM189.571 117.06C189.571 117.008 189.576 117.05 189.548 117.155C189.52 117.265 189.47 117.387 189.403 117.499C189.338 117.607 189.288 117.655 189.296 117.647C189.308 117.636 189.393 117.557 189.595 117.433L181.234 103.791C176.588 106.639 173.571 111.225 173.571 117.06H189.571ZM189.595 117.433C190.585 116.826 191.959 116.394 194.086 116.495L194.847 100.513C190.03 100.284 185.37 101.256 181.234 103.791L189.595 117.433ZM194.103 116.496C198.012 116.673 201.734 116.546 204.839 115.769L200.958 100.247C200.096 100.463 198.196 100.665 194.83 100.512L194.103 116.496ZM204.766 115.787C208.111 114.984 211.387 113.318 213.82 110.325L201.402 100.235C201.454 100.171 201.507 100.119 201.553 100.08C201.598 100.042 201.624 100.027 201.618 100.031C201.605 100.039 201.439 100.131 201.032 100.229L204.766 115.787ZM207.611 97.28C200.637 97.28 195.874 96.2756 192.802 94.8235L185.964 109.289C191.985 112.135 199.374 113.28 207.611 113.28V97.28ZM192.908 94.8747C190.043 93.468 188.073 91.4254 186.768 88.5028L172.158 95.0252C174.986 101.361 179.629 106.18 185.857 109.237L192.908 94.8747ZM186.836 88.6596C185.42 85.2965 184.487 80.2719 184.487 73.164H168.487C168.487 81.4321 169.538 88.8076 172.09 94.8685L186.836 88.6596ZM184.487 73.164C184.487 67.246 185.391 63.2524 186.647 60.687L172.278 53.6491C169.567 59.1849 168.487 65.8554 168.487 73.164H184.487ZM186.618 60.7457C187.141 59.7009 187.578 59.3621 187.748 59.2531C187.894 59.1598 188.248 58.968 189.135 58.968V42.968C185.64 42.968 182.192 43.8096 179.113 45.783C176.059 47.7406 173.852 50.5018 172.307 53.5903L186.618 60.7457ZM189.135 58.968C190.337 58.968 190.988 59.1436 191.273 59.255C191.407 59.3076 191.463 59.3467 191.472 59.3534C191.479 59.3585 191.481 59.3593 191.489 59.3694L203.893 49.2626C200.068 44.5686 194.531 42.968 189.135 42.968V58.968ZM191.699 59.6166C192.047 60.0107 192.543 60.7991 192.543 62.748H208.543C208.543 57.753 207.137 52.92 203.683 49.0154L191.699 59.6166ZM192.545 62.5662L192.421 68.0222L208.417 68.3858L208.541 62.9298L192.545 62.5662ZM192.442 67.5905C192.336 68.9776 192.295 70.7938 192.295 72.916H208.295C208.295 70.9049 208.337 69.5798 208.395 68.8176L192.442 67.5905ZM192.295 72.916C192.295 77.3284 192.811 81.7634 194.571 85.4299L208.995 78.5062C208.771 78.0393 208.295 76.4397 208.295 72.916H192.295ZM194.627 85.5457C197.441 91.1739 202.937 92.944 207.735 92.944V76.944C207.084 76.944 207.161 76.8288 207.592 77.0446C207.824 77.1602 208.101 77.3449 208.37 77.6132C208.638 77.8814 208.822 78.1591 208.938 78.3903L194.627 85.5457ZM207.735 92.944C212.533 92.944 218.028 91.1739 220.842 85.5457L206.531 78.3903C206.647 78.1591 206.832 77.8814 207.1 77.6132C207.368 77.3449 207.646 77.1602 207.877 77.0446C208.309 76.8288 208.386 76.944 207.735 76.944V92.944ZM220.899 85.4299C222.651 81.7795 223.175 77.4004 223.175 73.04H207.175C207.175 76.4503 206.706 78.0232 206.475 78.5062L220.899 85.4299ZM223.175 73.04C223.175 70.9178 223.134 69.1016 223.027 67.7145L207.074 68.9416C207.133 69.7038 207.175 71.0289 207.175 73.04H223.175ZM223.049 68.142L222.925 62.81L206.929 63.182L207.053 68.514L223.049 68.142ZM222.927 62.996C222.927 60.5533 223.511 59.6557 223.762 59.3596L211.548 49.0245C208.161 53.027 206.927 57.9988 206.927 62.996H222.927ZM223.647 59.4926C223.66 59.4772 223.727 59.3882 224.036 59.2734C224.394 59.1404 225.107 58.968 226.335 58.968V42.968C221.008 42.968 215.567 44.4778 211.663 48.8914L223.647 59.4926ZM226.335 58.968C227.221 58.968 227.576 59.1598 227.721 59.2531C227.891 59.3621 228.329 59.7009 228.851 60.7457L243.162 53.5903C241.618 50.5018 239.41 47.7406 236.356 45.783C233.278 43.8096 229.83 42.968 226.335 42.968V58.968ZM228.851 60.7457C230.182 63.4062 231.107 67.3948 231.107 73.164H247.107C247.107 65.8719 245.965 59.1965 243.162 53.5903L228.851 60.7457ZM231.107 73.164C231.107 82.1458 229.814 90.2249 227.324 97.4735L242.457 102.671C245.589 93.5512 247.107 83.6916 247.107 73.164H231.107ZM227.309 97.519C225.038 104.264 221.383 109.523 216.367 113.549L226.382 126.027C233.932 119.967 239.288 112.083 242.472 102.625L227.309 97.519ZM216.327 113.582C211.871 117.206 205.732 119.352 197.195 119.352V135.352C208.497 135.352 218.478 132.456 226.423 125.994L216.327 113.582ZM30.1718 255.365L32.3479 124.133L16.3501 123.867L14.174 255.099L30.1718 255.365ZM20.7171 131.128L54.1298 148.153L61.3937 133.897L27.9809 116.872L20.7171 131.128ZM49.7629 140.892L49.452 159.639L65.4498 159.905L65.7607 141.157L49.7629 140.892ZM53.819 166.9L70.5253 175.412L77.7892 161.156L61.0828 152.644L53.819 166.9ZM66.1584 168.152L65.8475 186.899L81.8453 187.164L82.1562 168.417L66.1584 168.152ZM70.2145 194.16L86.9208 202.672L94.1847 188.416L77.4783 179.904L70.2145 194.16ZM98.5517 195.677L98.8625 176.929L82.8647 176.664L82.5539 195.411L98.5517 195.677ZM87.2317 183.925L103.938 192.437L111.202 178.181L94.4956 169.669L87.2317 183.925ZM115.569 185.442L115.88 166.694L99.882 166.429L99.5711 185.176L115.569 185.442ZM104.249 173.69L137.662 190.714L144.926 176.458L111.513 159.434L104.249 173.69ZM133.295 183.454L131.119 314.686L147.116 314.951L149.293 183.719L133.295 183.454ZM142.749 307.69L109.337 290.665L102.073 304.922L135.486 321.946L142.749 307.69ZM113.704 297.926L114.947 222.937L98.9494 222.671L97.7059 297.661L113.704 297.926ZM110.58 215.676L93.8738 207.163L86.61 221.42L103.316 229.932L110.58 215.676ZM82.243 214.159L81.6212 251.654L97.619 251.919L98.2408 214.424L82.243 214.159ZM93.2521 244.658L76.5457 236.146L69.2819 250.402L85.9882 258.914L93.2521 244.658ZM80.9127 243.407L81.5344 205.912L65.5366 205.647L64.9149 243.141L80.9127 243.407ZM77.1674 198.651L60.4611 190.139L53.1972 204.395L69.9036 212.907L77.1674 198.651ZM48.8302 197.134L47.5868 272.124L63.5846 272.389L64.828 197.4L48.8302 197.134ZM59.2176 265.129L25.8048 248.104L18.541 262.36L51.9537 279.385L59.2176 265.129ZM217.09 298.211V279.461H201.09V298.211H217.09ZM205.365 272.381L188.771 281.111L196.221 295.271L212.815 286.54L205.365 272.381ZM200.496 288.191V269.441H184.496V288.191H200.496ZM188.771 262.361L172.178 271.091L179.628 285.251L196.221 276.521L188.771 262.361ZM183.903 278.171V221.921H167.903V278.171H183.903ZM179.628 229.001L196.221 220.271L188.771 206.111L172.178 214.841L179.628 229.001ZM200.496 213.191V194.441H184.496V213.191H200.496ZM196.221 201.521L212.815 192.79L205.365 178.631L188.771 187.361L196.221 201.521ZM217.09 185.711V166.961H201.09V185.711H217.09ZM212.815 174.04L279.189 139.119L271.739 124.96L205.365 159.881L212.815 174.04ZM267.464 132.039V150.789H283.464V132.039H267.464ZM279.189 157.869L295.782 149.139L288.332 134.979L271.739 143.71L279.189 157.869ZM284.057 142.059V160.809H300.057V142.059H284.057ZM288.332 153.729L255.145 171.19L262.595 185.35L295.782 167.889L288.332 153.729ZM266.87 178.27V159.52H250.87V178.27H266.87ZM255.145 152.44L221.958 169.9L229.408 184.06L262.595 166.6L255.145 152.44ZM217.683 176.98V195.73H233.683V176.98H217.683ZM221.958 188.65L205.365 197.381L212.815 211.54L229.408 202.81L221.958 188.65ZM201.09 204.461V260.711H217.09V204.461H201.09ZM212.815 267.79L229.408 259.06L221.958 244.9L205.365 253.631L212.815 267.79ZM217.683 251.98V270.73H233.683V251.98H217.683ZM229.408 277.81L262.595 260.35L255.145 246.19L221.958 263.65L229.408 277.81ZM266.87 253.27V234.52H250.87V253.27H266.87ZM262.595 241.6L295.782 224.139L288.332 209.979L255.145 227.44L262.595 241.6ZM284.057 217.059V235.809H300.057V217.059H284.057ZM288.332 228.729L271.739 237.46L279.189 251.619L295.782 242.889L288.332 228.729ZM267.464 244.539V263.289H283.464V244.539H267.464ZM271.739 256.21L205.365 291.131L212.815 305.29L279.189 270.369L271.739 256.21Z" fill="#231A0D" mask="url(#path-1-outside-1)"/>
<path d="M158 187V337L308 262V112L158 187Z" fill="url(#paint0_linear)"/>
<path d="M158 162V187L308 112V87L158 162Z" fill="url(#paint1_linear)"/>
<path d="M158 187V337L8 262L8 112L158 187Z" fill="url(#paint2_linear)"/>
<path d="M158 162V187L8 112V87L158 162Z" fill="url(#paint3_linear)"/>
<path d="M308 87L158 162L8 87L158 12L308 87Z" fill="url(#paint4_linear)"/>
<path d="M158 159V162L8 87L11 85.5L158 159Z" fill="url(#paint5_linear)"/>
<path d="M158 184V187L8 112V109L158 184Z" fill="#927A56"/>
<path d="M158 184V187L308 112V109L158 184Z" fill="#927A56"/>
<path d="M158 159V162L308 87L305 85.5L158 159Z" fill="url(#paint6_linear)"/>
<g filter="url(#filter1_di)">
<path d="M124.088 109C121.277 109 118.921 108.297 117.02 106.892C115.201 105.404 113.92 103.42 113.176 100.94C112.515 98.6254 112.101 96.104 111.936 93.376C111.853 90.648 111.812 86.804 111.812 81.844C111.812 77.2147 111.605 73.784 111.192 71.552C110.861 69.32 109.993 68.204 108.588 68.204C106.935 68.204 105.777 68.948 105.116 70.436C104.455 71.8414 104.124 73.8667 104.124 76.512C104.124 78.9094 104.455 82.6707 105.116 87.796C105.199 88.788 105.364 90.3587 105.612 92.508C105.86 94.6574 105.984 96.4347 105.984 97.84C105.984 101.808 105.075 104.619 103.256 106.272C101.52 107.925 98.9573 108.752 95.568 108.752C91.5173 108.752 88.004 106.561 85.028 102.18C82.052 97.7987 79.82 92.3427 78.332 85.812C76.844 79.1987 76.1 72.7094 76.1 66.344C76.1 58.7387 77.1747 51.6707 79.324 45.14C81.556 38.6094 84.8627 33.36 89.244 29.392C93.708 25.424 99.0813 23.44 105.364 23.44C110.655 23.44 114.871 25.0934 118.012 28.4C121.153 31.624 123.261 35.5507 124.336 40.18C125.245 35.6334 127.271 31.7067 130.412 28.4C133.636 25.0934 137.852 23.44 143.06 23.44C149.26 23.44 154.551 25.3827 158.932 29.268C163.396 33.0707 166.785 38.4027 169.1 45.264C171.497 52.1254 172.696 60.0614 172.696 69.072C172.696 74.9414 171.869 81.0174 170.216 87.3C168.563 93.5 166.248 98.6667 163.272 102.8C160.296 106.933 156.907 109 153.104 109C149.632 109 146.987 108.132 145.168 106.396C143.349 104.66 142.44 101.808 142.44 97.84C142.44 96.0214 142.771 92.632 143.432 87.672C144.093 82.3814 144.424 78.5787 144.424 76.264C144.424 70.8907 142.977 68.204 140.084 68.204C138.596 68.204 137.645 69.4027 137.232 71.8C136.901 74.1974 136.695 78.0827 136.612 83.456C136.612 87.5067 136.529 90.896 136.364 93.624C136.199 96.2694 135.827 98.708 135.248 100.94C134.587 103.337 133.264 105.28 131.28 106.768C129.379 108.256 126.981 109 124.088 109ZM197.195 127.352C192.731 127.352 189.011 126.484 186.035 124.748C183.059 123.012 181.571 120.449 181.571 117.06C181.571 114.332 182.852 112.183 185.415 110.612C187.977 109.041 190.995 108.339 194.467 108.504C198.104 108.669 200.915 108.504 202.899 108.008C204.965 107.512 206.536 106.603 207.611 105.28C200.005 105.28 193.929 104.205 189.383 102.056C184.836 99.824 181.529 96.3934 179.463 91.764C177.479 87.052 176.487 80.852 176.487 73.164C176.487 66.5507 177.479 61.2187 179.463 57.168C181.529 53.0347 184.753 50.968 189.135 50.968C193.02 50.968 195.872 52.084 197.691 54.316C199.592 56.4654 200.543 59.276 200.543 62.748L200.419 68.204C200.336 69.2787 200.295 70.8494 200.295 72.916C200.295 76.884 200.791 79.9014 201.783 81.968C202.775 83.952 204.759 84.944 207.735 84.944C210.711 84.944 212.695 83.952 213.687 81.968C214.679 79.9014 215.175 76.9254 215.175 73.04C215.175 70.9734 215.133 69.4027 215.051 68.328L214.927 62.996C214.927 59.276 215.836 56.3414 217.655 54.192C219.556 52.0427 222.449 50.968 226.335 50.968C230.716 50.968 233.94 53.0347 236.007 57.168C238.073 61.3014 239.107 66.6334 239.107 73.164C239.107 82.9187 237.701 91.888 234.891 100.072C232.163 108.173 227.657 114.745 221.375 119.788C215.175 124.831 207.115 127.352 197.195 127.352Z" fill="#D9FDD8"/>
<path d="M117.02 106.892L116.387 107.666L116.406 107.682L116.426 107.696L117.02 106.892ZM113.176 100.94L112.214 101.215L112.218 101.227L113.176 100.94ZM111.936 93.376L110.936 93.4063L110.937 93.4214L110.938 93.4365L111.936 93.376ZM111.192 71.552L110.203 71.6986L110.205 71.7164L110.209 71.7341L111.192 71.552ZM105.116 70.436L106.021 70.8618L106.025 70.852L106.03 70.8422L105.116 70.436ZM105.116 87.796L106.113 87.713L106.111 87.6905L106.108 87.6681L105.116 87.796ZM105.612 92.508L104.619 92.6227L104.619 92.6227L105.612 92.508ZM103.256 106.272L102.583 105.532L102.575 105.54L102.566 105.548L103.256 106.272ZM85.028 102.18L85.8552 101.618L85.8552 101.618L85.028 102.18ZM78.332 85.812L77.3564 86.0315L77.357 86.0342L78.332 85.812ZM79.324 45.14L78.3777 44.8166L78.3741 44.8274L79.324 45.14ZM89.244 29.392L88.5796 28.6446L88.5727 28.6508L89.244 29.392ZM118.012 28.4L117.287 29.0888L117.296 29.0979L118.012 28.4ZM124.336 40.18L123.362 40.4062L125.317 40.3761L124.336 40.18ZM130.412 28.4L129.696 27.7019L129.687 27.7113L130.412 28.4ZM158.932 29.268L158.268 30.0162L158.276 30.0228L158.284 30.0293L158.932 29.268ZM169.1 45.264L168.152 45.5837L168.156 45.5939L169.1 45.264ZM170.216 87.3L171.182 87.5577L171.183 87.5545L170.216 87.3ZM143.432 87.672L144.423 87.8042L144.424 87.7961L143.432 87.672ZM137.232 71.8L136.247 71.6301L136.244 71.6467L136.241 71.6634L137.232 71.8ZM136.612 83.456L135.612 83.4406L135.612 83.4483V83.456H136.612ZM136.364 93.624L137.362 93.6864L137.362 93.6845L136.364 93.624ZM135.248 100.94L136.212 101.206L136.214 101.198L136.216 101.191L135.248 100.94ZM131.28 106.768L130.68 105.968L130.672 105.974L130.664 105.981L131.28 106.768ZM124.088 108C121.45 108 119.313 107.343 117.614 106.088L116.426 107.696C118.53 109.251 121.105 110 124.088 110V108ZM117.653 106.118C116.004 104.769 114.827 102.962 114.134 100.653L112.218 101.227C113.013 103.878 114.398 106.039 116.387 107.666L117.653 106.118ZM114.138 100.665C113.499 98.4292 113.096 95.9806 112.934 93.3155L110.938 93.4365C111.107 96.2275 111.531 98.8216 112.214 101.215L114.138 100.665ZM112.936 93.3457C112.853 90.6328 112.812 86.8006 112.812 81.844H110.812C110.812 86.8074 110.853 90.6632 110.936 93.4063L112.936 93.3457ZM112.812 81.844C112.812 77.2028 112.606 73.6963 112.175 71.3699L110.209 71.7341C110.605 73.8718 110.812 77.2266 110.812 81.844H112.812ZM112.181 71.4055C112.004 70.2106 111.667 69.1791 111.082 68.4271C110.46 67.6272 109.601 67.204 108.588 67.204V69.204C108.98 69.204 109.258 69.3388 109.504 69.655C109.787 70.019 110.049 70.6614 110.203 71.6986L112.181 71.4055ZM108.588 67.204C107.609 67.204 106.709 67.4259 105.939 67.9208C105.168 68.4165 104.597 69.1409 104.202 70.0299L106.03 70.8422C106.296 70.2432 106.634 69.8516 107.021 69.6032C107.408 69.3542 107.914 69.204 108.588 69.204V67.204ZM104.211 70.0102C103.458 71.6112 103.124 73.8091 103.124 76.512H105.124C105.124 73.9243 105.452 72.0715 106.021 70.8618L104.211 70.0102ZM103.124 76.512C103.124 78.9778 103.462 82.7931 104.124 87.924L106.108 87.6681C105.447 82.5483 105.124 78.8409 105.124 76.512H103.124ZM104.119 87.8791C104.204 88.888 104.37 90.472 104.619 92.6227L106.605 92.3934C106.358 90.2454 106.194 88.6881 106.113 87.713L104.119 87.8791ZM104.619 92.6227C104.864 94.7519 104.984 96.4876 104.984 97.84H106.984C106.984 96.3818 106.856 94.5629 106.605 92.3934L104.619 92.6227ZM104.984 97.84C104.984 101.695 104.095 104.158 102.583 105.532L103.929 107.012C106.054 105.08 106.984 101.921 106.984 97.84H104.984ZM102.566 105.548C101.081 106.962 98.8072 107.752 95.568 107.752V109.752C99.1074 109.752 101.959 108.889 103.946 106.996L102.566 105.548ZM95.568 107.752C91.9478 107.752 88.7087 105.819 85.8552 101.618L84.2008 102.742C87.2992 107.304 91.0869 109.752 95.568 109.752V107.752ZM85.8552 101.618C82.965 97.3631 80.7743 92.0299 79.307 85.5899L77.357 86.0342C78.8656 92.6555 81.139 98.2343 84.2008 102.742L85.8552 101.618ZM79.3076 85.5925C77.8348 79.0466 77.1 72.6309 77.1 66.344H75.1C75.1 72.7878 75.8532 79.3508 77.3564 86.0315L79.3076 85.5925ZM77.1 66.344C77.1 58.8337 78.1611 51.8723 80.2739 45.4526L78.3741 44.8274C76.1882 51.4691 75.1 58.6437 75.1 66.344H77.1ZM80.2702 45.4634C82.4567 39.0661 85.6791 33.9698 89.9153 30.1332L88.5727 28.6508C84.0462 32.7503 80.6553 38.1527 78.3777 44.8166L80.2702 45.4634ZM89.9084 30.1394C94.1792 26.3431 99.3123 24.44 105.364 24.44V22.44C98.8503 22.44 93.2368 24.5049 88.5796 28.6446L89.9084 30.1394ZM105.364 24.44C110.428 24.44 114.365 26.013 117.287 29.0888L118.737 27.7113C115.376 24.1737 110.881 22.44 105.364 22.44V24.44ZM117.296 29.0979C120.302 32.1837 122.326 35.9443 123.362 40.4062L125.31 39.9539C124.197 35.1571 122.004 31.0643 118.728 27.7022L117.296 29.0979ZM125.317 40.3761C126.19 36.0113 128.128 32.2563 131.137 29.0888L129.687 27.7113C126.413 31.1571 124.301 35.2555 123.355 39.9839L125.317 40.3761ZM131.128 29.0981C134.139 26.0099 138.084 24.44 143.06 24.44V22.44C137.62 22.44 133.133 24.1768 129.696 27.7019L131.128 29.0981ZM143.06 24.44C149.031 24.44 154.081 26.3032 158.268 30.0162L159.595 28.5198C155.02 24.4622 149.489 22.44 143.06 22.44V24.44ZM158.284 30.0293C162.581 33.6898 165.882 38.8538 168.152 45.5837L170.048 44.9444C167.689 37.9516 164.211 32.4516 159.58 28.5068L158.284 30.0293ZM168.156 45.5939C170.509 52.3272 171.696 60.1478 171.696 69.072H173.696C173.696 59.9749 172.486 51.9235 170.044 44.9342L168.156 45.5939ZM171.696 69.072C171.696 74.8469 170.883 80.8372 169.249 87.0455L171.183 87.5545C172.856 81.1975 173.696 75.0359 173.696 69.072H171.696ZM169.25 87.0424C167.62 93.1543 165.35 98.2029 162.46 102.216L164.084 103.384C167.146 99.1305 169.505 93.8458 171.182 87.5577L169.25 87.0424ZM162.46 102.216C159.603 106.185 156.482 108 153.104 108V110C157.331 110 160.989 107.682 164.084 103.384L162.46 102.216ZM153.104 108C149.79 108 147.43 107.173 145.858 105.673L144.478 107.119C146.543 109.091 149.474 110 153.104 110V108ZM145.858 105.673C144.326 104.21 143.44 101.689 143.44 97.84H141.44C141.44 101.927 142.372 105.11 144.478 107.119L145.858 105.673ZM143.44 97.84C143.44 96.0973 143.761 92.771 144.423 87.8042L142.441 87.5399C141.78 92.4931 141.44 95.9454 141.44 97.84H143.44ZM144.424 87.7961C145.086 82.5032 145.424 78.6465 145.424 76.264H143.424C143.424 78.5109 143.101 82.2595 142.44 87.548L144.424 87.7961ZM145.424 76.264C145.424 73.5203 145.06 71.3063 144.219 69.7449C143.791 68.9493 143.227 68.3021 142.509 67.8575C141.788 67.4112 140.968 67.204 140.084 67.204V69.204C140.647 69.204 141.092 69.3327 141.456 69.558C141.823 69.7851 142.164 70.1455 142.459 70.6931C143.064 71.8184 143.424 73.6344 143.424 76.264H145.424ZM140.084 67.204C139.025 67.204 138.13 67.651 137.471 68.4816C136.848 69.2676 136.467 70.3541 136.247 71.6301L138.217 71.9699C138.411 70.8486 138.711 70.1371 139.038 69.7244C139.33 69.3564 139.655 69.204 140.084 69.204V67.204ZM136.241 71.6634C135.902 74.1257 135.695 78.0634 135.612 83.4406L137.612 83.4714C137.694 78.102 137.901 74.269 138.223 71.9367L136.241 71.6634ZM135.612 83.456C135.612 87.4951 135.53 90.8627 135.366 93.5635L137.362 93.6845C137.529 90.9293 137.612 87.5183 137.612 83.456H135.612ZM135.366 93.5617C135.204 96.1525 134.84 98.5272 134.28 100.689L136.216 101.191C136.813 98.8889 137.193 96.3862 137.362 93.6864L135.366 93.5617ZM134.284 100.674C133.681 102.859 132.486 104.613 130.68 105.968L131.88 107.568C134.042 105.947 135.492 103.816 136.212 101.206L134.284 100.674ZM130.664 105.981C128.971 107.305 126.804 108 124.088 108V110C127.159 110 129.786 109.207 131.896 107.556L130.664 105.981ZM185.415 110.612L184.892 109.759L184.892 109.759L185.415 110.612ZM194.467 108.504L194.419 109.503L194.421 109.503L194.467 108.504ZM202.899 108.008L202.665 107.036L202.656 107.038L202.899 108.008ZM207.611 105.28L208.387 105.911L209.712 104.28H207.611V105.28ZM189.383 102.056L188.942 102.954L188.949 102.957L188.955 102.96L189.383 102.056ZM179.463 91.764L178.541 92.1521L178.545 92.1619L178.55 92.1717L179.463 91.764ZM179.463 57.168L178.568 56.7208L178.565 56.7282L179.463 57.168ZM197.691 54.316L196.915 54.9477L196.928 54.9634L196.942 54.9786L197.691 54.316ZM200.543 62.748L201.542 62.7707L201.543 62.7594V62.748H200.543ZM200.419 68.204L201.416 68.2807L201.418 68.2538L201.418 68.2267L200.419 68.204ZM201.783 81.968L200.881 82.4008L200.885 82.408L200.888 82.4152L201.783 81.968ZM213.687 81.968L214.581 82.4152L214.585 82.408L214.588 82.4008L213.687 81.968ZM215.051 68.328L214.051 68.3513L214.052 68.378L214.054 68.4047L215.051 68.328ZM214.927 62.996H213.927V63.0077L213.927 63.0193L214.927 62.996ZM217.655 54.192L216.906 53.5295L216.898 53.5377L216.891 53.5461L217.655 54.192ZM236.007 57.168L235.112 57.6152L235.112 57.6152L236.007 57.168ZM234.891 100.072L233.945 99.7472L233.943 99.7529L234.891 100.072ZM221.375 119.788L220.749 119.008L220.744 119.012L221.375 119.788ZM197.195 126.352C192.857 126.352 189.323 125.508 186.539 123.884L185.531 125.612C188.699 127.46 192.605 128.352 197.195 128.352V126.352ZM186.539 123.884C183.864 122.324 182.571 120.086 182.571 117.06H180.571C180.571 120.812 182.254 123.7 185.531 125.612L186.539 123.884ZM182.571 117.06C182.571 114.72 183.635 112.876 185.937 111.465L184.892 109.759C182.069 111.49 180.571 113.944 180.571 117.06H182.571ZM185.937 111.465C188.303 110.015 191.115 109.346 194.419 109.503L194.514 107.505C190.874 107.332 187.651 108.068 184.892 109.759L185.937 111.465ZM194.421 109.503C198.093 109.67 201.017 109.509 203.141 108.978L202.656 107.038C200.812 107.499 198.116 107.669 194.512 107.505L194.421 109.503ZM203.132 108.98C205.359 108.446 207.142 107.442 208.387 105.911L206.835 104.649C205.93 105.763 204.572 106.578 202.665 107.036L203.132 108.98ZM207.611 104.28C200.084 104.28 194.172 103.214 189.81 101.152L188.955 102.96C193.686 105.197 199.926 106.28 207.611 106.28V104.28ZM189.823 101.158C185.487 99.0295 182.347 95.7724 180.376 91.3564L178.55 92.1717C180.711 97.0144 184.185 100.619 188.942 102.954L189.823 101.158ZM180.384 91.376C178.471 86.8326 177.487 80.7795 177.487 73.164H175.487C175.487 80.9245 176.486 87.2715 178.541 92.1521L180.384 91.376ZM177.487 73.164C177.487 66.6376 178.468 61.4729 180.361 57.6079L178.565 56.7282C176.49 60.9645 175.487 66.4638 175.487 73.164H177.487ZM180.357 57.6152C181.327 55.6763 182.539 54.2777 183.97 53.3599C185.399 52.4441 187.107 51.968 189.135 51.968V49.968C186.781 49.968 184.686 50.5253 182.891 51.6761C181.099 52.825 179.665 54.5264 178.568 56.7208L180.357 57.6152ZM189.135 51.968C192.831 51.968 195.348 53.0235 196.915 54.9477L198.466 53.6844C196.397 51.1446 193.209 49.968 189.135 49.968V51.968ZM196.942 54.9786C198.649 56.9085 199.543 59.4664 199.543 62.748H201.543C201.543 59.0856 200.535 56.0222 198.44 53.6535L196.942 54.9786ZM199.543 62.7253L199.419 68.1813L201.418 68.2267L201.542 62.7707L199.543 62.7253ZM199.422 68.1273C199.336 69.2411 199.295 70.8424 199.295 72.916H201.295C201.295 70.8563 201.336 69.3163 201.416 68.2807L199.422 68.1273ZM199.295 72.916C199.295 76.9396 199.793 80.1341 200.881 82.4008L202.684 81.5353C201.788 79.6686 201.295 76.8285 201.295 72.916H199.295ZM200.888 82.4152C202.108 84.8548 204.531 85.944 207.735 85.944V83.944C204.986 83.944 203.441 83.0493 202.677 81.5208L200.888 82.4152ZM207.735 85.944C210.938 85.944 213.361 84.8548 214.581 82.4152L212.792 81.5208C212.028 83.0493 210.483 83.944 207.735 83.944V85.944ZM214.588 82.4008C215.675 80.1361 216.175 76.9847 216.175 73.04H214.175C214.175 76.866 213.682 79.6666 212.785 81.5353L214.588 82.4008ZM216.175 73.04C216.175 70.9664 216.133 69.3651 216.048 68.2513L214.054 68.4047C214.133 69.4403 214.175 70.9803 214.175 73.04H216.175ZM216.05 68.3048L215.926 62.9728L213.927 63.0193L214.051 68.3513L216.05 68.3048ZM215.927 62.996C215.927 59.4357 216.795 56.7557 218.418 54.838L216.891 53.5461C214.877 55.9271 213.927 59.1164 213.927 62.996H215.927ZM218.404 54.8546C220.055 52.9883 222.63 51.968 226.335 51.968V49.968C222.269 49.968 219.057 51.0971 216.906 53.5295L218.404 54.8546ZM226.335 51.968C228.362 51.968 230.07 52.4441 231.499 53.3599C232.931 54.2777 234.143 55.6763 235.112 57.6152L236.901 56.7208C235.804 54.5264 234.371 52.825 232.578 51.6761C230.783 50.5253 228.688 49.968 226.335 49.968V51.968ZM235.112 57.6152C237.087 61.5645 238.107 66.7285 238.107 73.164H240.107C240.107 66.5382 239.06 61.0383 236.901 56.7208L235.112 57.6152ZM238.107 73.164C238.107 82.8221 236.715 91.6801 233.945 99.7472L235.836 100.397C238.687 92.0959 240.107 83.0153 240.107 73.164H238.107ZM233.943 99.7529C231.272 107.685 226.873 114.093 220.749 119.008L222.001 120.568C228.442 115.398 233.053 108.662 235.838 100.391L233.943 99.7529ZM220.744 119.012C214.762 123.878 206.942 126.352 197.195 126.352V128.352C207.288 128.352 215.588 125.784 222.006 120.564L220.744 119.012Z" fill="url(#paint7_linear)"/>
</g>
<g filter="url(#filter2_i)">
<path d="M22.1729 255.232L24.349 124L57.7618 141.025L57.4509 159.772L74.1573 168.284L73.8464 187.032L90.5528 195.544L90.8636 176.797L107.57 185.309L107.881 166.562L141.294 183.586L139.118 314.818L105.705 297.794L106.948 222.804L90.2419 214.292L89.6201 251.786L72.9138 243.274L73.5355 205.779L56.8291 197.267L55.5857 272.257L22.1729 255.232Z" fill="url(#paint8_linear)"/>
</g>
<path d="M22.1729 255.232L20.3909 254.324L20.3577 256.324L22.1397 257.232L22.1729 255.232ZM24.349 124L24.3822 122L22.6002 121.092L22.567 123.092L24.349 124ZM57.7618 141.025L59.5438 141.933L59.5769 139.933L57.7949 139.025L57.7618 141.025ZM57.4509 159.772L55.6689 158.864L55.6357 160.864L57.4177 161.772L57.4509 159.772ZM74.1573 168.284L75.9393 169.192L75.9724 167.193L74.1904 166.285L74.1573 168.284ZM73.8464 187.032L72.0644 186.124L72.0312 188.124L73.8132 189.032L73.8464 187.032ZM90.5528 195.544L90.5196 197.544L92.3016 198.452L92.3348 196.452L90.5528 195.544ZM90.8636 176.797L90.8968 174.797L89.1148 173.889L89.0816 175.889L90.8636 176.797ZM107.57 185.309L107.537 187.309L109.319 188.217L109.352 186.217L107.57 185.309ZM107.881 166.562L107.914 164.562L106.132 163.654L106.099 165.654L107.881 166.562ZM141.294 183.586L143.076 184.494L143.109 182.495L141.327 181.587L141.294 183.586ZM139.118 314.818L139.084 316.818L140.866 317.726L140.9 315.726L139.118 314.818ZM105.705 297.794L103.923 296.886L103.89 298.885L105.672 299.793L105.705 297.794ZM106.948 222.804L108.73 223.712L108.763 221.712L106.981 220.804L106.948 222.804ZM90.2419 214.292L90.275 212.292L88.493 211.384L88.4599 213.384L90.2419 214.292ZM89.6201 251.786L89.587 253.786L91.369 254.694L91.4022 252.694L89.6201 251.786ZM72.9138 243.274L71.1318 242.366L71.0986 244.366L72.8806 245.274L72.9138 243.274ZM73.5355 205.779L75.3175 206.687L75.3507 204.687L73.5687 203.779L73.5355 205.779ZM56.8291 197.267L56.8623 195.267L55.0803 194.359L55.0471 196.359L56.8291 197.267ZM55.5857 272.257L55.5525 274.256L57.3345 275.164L57.3677 273.165L55.5857 272.257ZM23.9549 256.14L26.131 124.908L22.567 123.092L20.3909 254.324L23.9549 256.14ZM24.3159 126L57.7286 143.024L57.7949 139.025L24.3822 122L24.3159 126ZM55.9797 140.117L55.6689 158.864L59.2329 160.68L59.5438 141.933L55.9797 140.117ZM57.4177 161.772L74.1241 170.284L74.1904 166.285L57.484 157.772L57.4177 161.772ZM72.3753 167.376L72.0644 186.124L75.6284 187.94L75.9393 169.192L72.3753 167.376ZM73.8132 189.032L90.5196 197.544L90.5859 193.544L73.8796 185.032L73.8132 189.032ZM92.3348 196.452L92.6456 177.705L89.0816 175.889L88.7707 194.636L92.3348 196.452ZM90.8305 178.796L107.537 187.309L107.603 183.309L90.8968 174.797L90.8305 178.796ZM109.352 186.217L109.663 167.47L106.099 165.654L105.788 184.401L109.352 186.217ZM107.848 168.561L141.26 185.586L141.327 181.587L107.914 164.562L107.848 168.561ZM139.512 182.678L137.336 313.91L140.9 315.726L143.076 184.494L139.512 182.678ZM139.151 312.818L105.738 295.794L105.672 299.793L139.084 316.818L139.151 312.818ZM107.487 298.702L108.73 223.712L105.166 221.896L103.923 296.886L107.487 298.702ZM106.981 220.804L90.275 212.292L90.2087 216.291L106.915 224.804L106.981 220.804ZM88.4599 213.384L87.8381 250.878L91.4022 252.694L92.0239 215.2L88.4599 213.384ZM89.6533 249.787L72.9469 241.274L72.8806 245.274L89.587 253.786L89.6533 249.787ZM74.6958 244.182L75.3175 206.687L71.7535 204.871L71.1318 242.366L74.6958 244.182ZM73.5687 203.779L56.8623 195.267L56.796 199.267L73.5024 207.779L73.5687 203.779ZM55.0471 196.359L53.8036 271.349L57.3677 273.165L58.6112 198.175L55.0471 196.359ZM55.6188 270.257L22.2061 253.232L22.1397 257.232L55.5525 274.256L55.6188 270.257Z" fill="#BEA47C"/>
<g filter="url(#filter3_i)">
<path d="M209.09 298.211V279.461L192.496 288.191V269.441L175.903 278.171V221.921L192.496 213.191V194.441L209.09 185.711V166.961L275.464 132.039V150.789L292.057 142.059V160.809L258.87 178.27V159.52L225.683 176.98V195.73L209.09 204.461V260.711L225.683 251.98V270.73L258.87 253.27V234.52L292.057 217.059V235.809L275.464 244.539V263.289L209.09 298.211Z" fill="url(#paint9_linear)"/>
</g>
<path d="M209.09 298.211L207.32 299.142V301.142L209.09 300.211V298.211ZM209.09 279.461L210.86 278.529V276.529L209.09 277.461V279.461ZM192.496 288.191L190.726 289.122V291.122L192.496 290.191V288.191ZM192.496 269.441L194.266 268.51V266.51L192.496 267.441V269.441ZM175.903 278.171L174.133 279.102V281.102L175.903 280.171V278.171ZM175.903 221.921V219.921L174.133 220.852V222.852L175.903 221.921ZM192.496 213.191V215.191L194.266 214.26V212.26L192.496 213.191ZM192.496 194.441V192.441L190.726 193.372V195.372L192.496 194.441ZM209.09 185.711V187.711L210.86 186.779V184.779L209.09 185.711ZM209.09 166.961V164.961L207.32 165.892V167.892L209.09 166.961ZM275.464 132.039L277.234 131.108V129.108L275.464 130.039V132.039ZM275.464 150.789L273.694 151.721V153.721L275.464 152.789V150.789ZM292.057 142.059L293.827 141.128V139.128L292.057 140.059V142.059ZM292.057 160.809V162.809L293.827 161.878V159.878L292.057 160.809ZM258.87 178.27L257.1 179.201V181.201L258.87 180.27V178.27ZM258.87 159.52L260.64 158.588V156.588L258.87 157.52V159.52ZM225.683 176.98V174.98L223.913 175.911V177.911L225.683 176.98ZM225.683 195.73V197.73L227.453 196.799V194.799L225.683 195.73ZM209.09 204.461V202.461L207.32 203.392V205.392L209.09 204.461ZM209.09 260.711L207.32 261.642V263.642L209.09 262.711V260.711ZM225.683 251.98L227.453 251.049V249.049L225.683 249.98V251.98ZM225.683 270.73L223.913 271.661V273.661L225.683 272.73V270.73ZM258.87 253.27V255.27L260.64 254.338V252.338L258.87 253.27ZM258.87 234.52V232.52L257.1 233.451V235.451L258.87 234.52ZM292.057 217.059L293.827 216.128V214.128L292.057 215.059V217.059ZM292.057 235.809V237.809L293.827 236.878V234.878L292.057 235.809ZM275.464 244.539V242.539L273.694 243.471V245.471L275.464 244.539ZM275.464 263.289V265.289L277.234 264.358V262.358L275.464 263.289ZM210.86 297.279V278.529L207.32 280.392V299.142L210.86 297.279ZM209.09 277.461L192.496 286.191V290.191L209.09 281.461V277.461ZM194.266 287.26V268.51L190.726 270.372V289.122L194.266 287.26ZM192.496 267.441L175.903 276.171V280.171L192.496 271.441V267.441ZM177.673 277.24V220.99L174.133 222.852V279.102L177.673 277.24ZM175.903 223.921L192.496 215.191V211.191L175.903 219.921V223.921ZM194.266 212.26V193.51L190.726 195.372V214.122L194.266 212.26ZM192.496 196.441L209.09 187.711V183.711L192.496 192.441V196.441ZM210.86 184.779V166.029L207.32 167.892V186.642L210.86 184.779ZM209.09 168.961L275.464 134.039V130.039L209.09 164.961V168.961ZM273.694 132.971V151.721L277.234 149.858V131.108L273.694 132.971ZM275.464 152.789L292.057 144.059V140.059L275.464 148.789V152.789ZM290.287 142.99V161.74L293.827 159.878V141.128L290.287 142.99ZM292.057 158.809L258.87 176.27V180.27L292.057 162.809V158.809ZM260.64 177.338V158.588L257.1 160.451V179.201L260.64 177.338ZM258.87 157.52L225.683 174.98V178.98L258.87 161.52V157.52ZM223.913 177.911V196.661L227.453 194.799V176.049L223.913 177.911ZM225.683 193.73L209.09 202.461V206.461L225.683 197.73V193.73ZM207.32 205.392V261.642L210.86 259.779V203.529L207.32 205.392ZM209.09 262.711L225.683 253.98V249.98L209.09 258.711V262.711ZM223.913 252.911V271.661L227.453 269.799V251.049L223.913 252.911ZM225.683 272.73L258.87 255.27V251.27L225.683 268.73V272.73ZM260.64 252.338V233.588L257.1 235.451V254.201L260.64 252.338ZM258.87 236.52L292.057 219.059V215.059L258.87 232.52V236.52ZM290.287 217.99V236.74L293.827 234.878V216.128L290.287 217.99ZM292.057 233.809L275.464 242.539V246.539L292.057 237.809V233.809ZM273.694 245.471V264.221L277.234 262.358V243.608L273.694 245.471ZM275.464 261.289L209.09 296.211V300.211L275.464 265.289V261.289Z" fill="#BEA47C"/>
<defs>
<filter id="filter0_i" x="0" y="3.05576" width="316" height="342.889" filterUnits="userSpaceOnUse" color-interpolation-filters="sRGB">
<feFlood flood-opacity="0" result="BackgroundImageFix"/>
<feBlend mode="normal" in="SourceGraphic" in2="BackgroundImageFix" result="shape"/>
<feColorMatrix in="SourceAlpha" type="matrix" values="0 0 0 0 0 0 0 0 0 0 0 0 0 0 0 0 0 0 127 0" result="hardAlpha"/>
<feOffset/>
<feGaussianBlur stdDeviation="5"/>
<feComposite in2="hardAlpha" operator="arithmetic" k2="-1" k3="1"/>
<feColorMatrix type="matrix" values="0 0 0 0 0.316667 0 0 0 0 0.244361 0 0 0 0 0.135903 0 0 0 1 0"/>
<feBlend mode="normal" in2="shape" result="effect1_innerShadow"/>
</filter>
<filter id="filter1_di" x="75.1" y="22.44" width="165.007" height="108.912" filterUnits="userSpaceOnUse" color-interpolation-filters="sRGB">
<feFlood flood-opacity="0" result="BackgroundImageFix"/>
<feColorMatrix in="SourceAlpha" type="matrix" values="0 0 0 0 0 0 0 0 0 0 0 0 0 0 0 0 0 0 127 0"/>
<feOffset dy="3"/>
<feGaussianBlur stdDeviation="0.5"/>
<feColorMatrix type="matrix" values="0 0 0 0 0.200001 0 0 0 0 0.441667 0 0 0 0 0.195069 0 0 0 1 0"/>
<feBlend mode="normal" in2="BackgroundImageFix" result="effect1_dropShadow"/>
<feBlend mode="normal" in="SourceGraphic" in2="effect1_dropShadow" result="shape"/>
<feColorMatrix in="SourceAlpha" type="matrix" values="0 0 0 0 0 0 0 0 0 0 0 0 0 0 0 0 0 0 127 0" result="hardAlpha"/>
<feOffset dy="-3"/>
<feGaussianBlur stdDeviation="0.5"/>
<feComposite in2="hardAlpha" operator="arithmetic" k2="-1" k3="1"/>
<feColorMatrix type="matrix" values="0 0 0 0 0.518362 0 0 0 0 0.858333 0 0 0 0 0.511424 0 0 0 1 0"/>
<feBlend mode="normal" in2="shape" result="effect2_innerShadow"/>
</filter>
<filter id="filter2_i" x="22.1729" y="124" width="119.121" height="190.818" filterUnits="userSpaceOnUse" color-interpolation-filters="sRGB">
<feFlood flood-opacity="0" result="BackgroundImageFix"/>
<feBlend mode="normal" in="SourceGraphic" in2="BackgroundImageFix" result="shape"/>
<feColorMatrix in="SourceAlpha" type="matrix" values="0 0 0 0 0 0 0 0 0 0 0 0 0 0 0 0 0 0 127 0" result="hardAlpha"/>
<feOffset/>
<feGaussianBlur stdDeviation="4"/>
<feComposite in2="hardAlpha" operator="arithmetic" k2="-1" k3="1"/>
<feColorMatrix type="matrix" values="0 0 0 0 0 0 0 0 0 0 0 0 0 0 0 0 0 0 1 0"/>
<feBlend mode="normal" in2="shape" result="effect1_innerShadow"/>
</filter>
<filter id="filter3_i" x="175.903" y="132.039" width="116.155" height="166.171" filterUnits="userSpaceOnUse" color-interpolation-filters="sRGB">
<feFlood flood-opacity="0" result="BackgroundImageFix"/>
<feBlend mode="normal" in="SourceGraphic" in2="BackgroundImageFix" result="shape"/>
<feColorMatrix in="SourceAlpha" type="matrix" values="0 0 0 0 0 0 0 0 0 0 0 0 0 0 0 0 0 0 127 0" result="hardAlpha"/>
<feOffset/>
<feGaussianBlur stdDeviation="4"/>
<feComposite in2="hardAlpha" operator="arithmetic" k2="-1" k3="1"/>
<feColorMatrix type="matrix" values="0 0 0 0 0 0 0 0 0 0 0 0 0 0 0 0 0 0 1 0"/>
<feBlend mode="normal" in2="shape" result="effect1_innerShadow"/>
</filter>
<linearGradient id="paint0_linear" x1="158" y1="185.233" x2="308" y2="260.352" gradientUnits="userSpaceOnUse">
<stop stop-color="#AD936C"/>
<stop offset="1" stop-color="#927A56"/>
</linearGradient>
<linearGradient id="paint1_linear" x1="308" y1="101.859" x2="158" y2="174.502" gradientUnits="userSpaceOnUse">
<stop stop-color="#368035"/>
<stop offset="1" stop-color="#449442"/>
</linearGradient>
<linearGradient id="paint2_linear" x1="158" y1="189.36" x2="8.00001" y2="265.305" gradientUnits="userSpaceOnUse">
<stop stop-color="#BEA47C"/>
<stop offset="1" stop-color="#927A56"/>
</linearGradient>
<linearGradient id="paint3_linear" x1="8" y1="100.208" x2="158" y2="173.676" gradientUnits="userSpaceOnUse">
<stop stop-color="#3F8A3D"/>
<stop offset="1" stop-color="#53B551"/>
</linearGradient>
<linearGradient id="paint4_linear" x1="85.2944" y1="47.9873" x2="220.066" y2="127.786" gradientUnits="userSpaceOnUse">
<stop stop-color="#6ECE6C"/>
<stop offset="1" stop-color="#53B551"/>
</linearGradient>
<linearGradient id="paint5_linear" x1="83" y1="85.5" x2="83" y2="162" gradientUnits="userSpaceOnUse">
<stop stop-color="#84DB82"/>
<stop offset="1" stop-color="#6ECE6C"/>
</linearGradient>
<linearGradient id="paint6_linear" x1="233" y1="85.5" x2="233" y2="162" gradientUnits="userSpaceOnUse">
<stop stop-color="#53B551"/>
<stop offset="1" stop-color="#6ECE6C"/>
</linearGradient>
<linearGradient id="paint7_linear" x1="158" y1="3.05176e-05" x2="158" y2="124" gradientUnits="userSpaceOnUse">
<stop stop-color="white"/>
<stop offset="1" stop-color="white" stop-opacity="0"/>
</linearGradient>
<linearGradient id="paint8_linear" x1="91.1745" y1="158.049" x2="29.994" y2="278.123" gradientUnits="userSpaceOnUse">
<stop stop-opacity="0.35"/>
<stop offset="1" stop-opacity="0.1"/>
</linearGradient>
<linearGradient id="paint9_linear" x1="242.277" y1="149.5" x2="304.086" y2="266.98" gradientUnits="userSpaceOnUse">
<stop stop-opacity="0.35"/>
<stop offset="1" stop-opacity="0.1"/>
</linearGradient>
</defs>
</svg>
